<svg xmlns="http://www.w3.org/2000/svg" xmlns:xlink="http://www.w3.org/1999/xlink" width="75" zoomAndPan="magnify" viewBox="0 0 56.25 56.249997" height="75" preserveAspectRatio="xMidYMid meet" version="1.0"><defs><g/><clipPath id="id1"><path d="M 7 27 L 19 27 L 19 38.902344 L 7 38.902344 Z M 7 27 " clip-rule="nonzero"/></clipPath><clipPath id="id2"><path d="M 2.910156 7 L 31 7 L 31 35 L 2.910156 35 Z M 2.910156 7 " clip-rule="nonzero"/></clipPath><clipPath id="id3"><path d="M 34 1.898438 L 46 1.898438 L 46 13 L 34 13 Z M 34 1.898438 " clip-rule="nonzero"/></clipPath><clipPath id="id4"><path d="M 22 5 L 50.277344 5 L 50.277344 34 L 22 34 Z M 22 5 " clip-rule="nonzero"/></clipPath></defs><g clip-path="url(#id1)"><path fill="#ff1e57" d="M 12.710938 27.800781 C 15.738281 27.800781 18.195312 30.285156 18.195312 33.351562 C 18.195312 36.417969 15.738281 38.902344 12.710938 38.902344 C 9.679688 38.902344 7.222656 36.417969 7.222656 33.351562 C 7.222656 30.285156 9.679688 27.800781 12.710938 27.800781 " fill-opacity="1" fill-rule="nonzero"/></g><g clip-path="url(#id2)"><path fill="#ff1e57" d="M 27.203125 16.9375 L 27.203125 30.007812 L 8.234375 18.933594 L 21.097656 11.421875 C 21.230469 11.34375 21.3125 11.203125 21.3125 11.050781 L 21.3125 7.894531 C 21.3125 7.5625 20.957031 7.355469 20.675781 7.519531 L 3.796875 17.378906 C 3.246094 17.699219 2.90625 18.292969 2.90625 18.933594 C 2.90625 19.574219 3.246094 20.167969 3.796875 20.488281 L 28.089844 34.675781 C 28.363281 34.835938 28.671875 34.917969 28.976562 34.917969 C 29.285156 34.917969 29.589844 34.835938 29.867188 34.675781 C 30.414062 34.355469 30.753906 33.761719 30.753906 33.121094 L 30.753906 18.527344 C 30.753906 18.375 30.671875 18.230469 30.542969 18.15625 L 27.839844 16.570312 C 27.554688 16.402344 27.203125 16.609375 27.203125 16.9375 " fill-opacity="1" fill-rule="nonzero"/></g><g clip-path="url(#id3)"><path fill="#00c2cb" d="M 40.472656 13 C 37.441406 13 34.984375 10.515625 34.984375 7.449219 C 34.984375 4.382812 37.441406 1.898438 40.472656 1.898438 C 43.503906 1.898438 45.960938 4.382812 45.960938 7.449219 C 45.960938 10.515625 43.503906 13 40.472656 13 " fill-opacity="1" fill-rule="nonzero"/></g><g clip-path="url(#id4)"><path fill="#00c2cb" d="M 25.980469 23.863281 L 25.980469 10.792969 L 44.945312 21.867188 L 32.082031 29.378906 C 31.953125 29.457031 31.871094 29.597656 31.871094 29.75 L 31.871094 32.910156 C 31.871094 33.238281 32.222656 33.445312 32.507812 33.28125 L 49.386719 23.421875 C 49.9375 23.101562 50.273438 22.507812 50.273438 21.867188 C 50.273438 21.226562 49.9375 20.632812 49.386719 20.3125 L 25.09375 6.125 C 24.816406 5.964844 24.511719 5.882812 24.203125 5.882812 C 23.898438 5.882812 23.589844 5.964844 23.316406 6.125 C 22.765625 6.445312 22.429688 7.039062 22.429688 7.679688 L 22.429688 22.273438 C 22.429688 22.429688 22.507812 22.570312 22.640625 22.644531 L 25.34375 24.234375 C 25.625 24.398438 25.980469 24.191406 25.980469 23.863281 " fill-opacity="1" fill-rule="nonzero"/></g><g fill="#f9fafb" fill-opacity="1"><g transform="translate(0.640362, 50.764656)"><g><path d="M 2.640625 0.0859375 C 3.851562 0.0859375 4.882812 -0.628906 4.882812 -1.839844 C 4.882812 -4.242188 1.894531 -3.648438 1.894531 -4.773438 C 1.894531 -5.140625 2.175781 -5.316406 2.523438 -5.316406 C 2.890625 -5.316406 3.257812 -5.109375 3.582031 -4.75 L 4.535156 -5.660156 C 4.058594 -6.214844 3.332031 -6.582031 2.53125 -6.582031 C 1.503906 -6.582031 0.453125 -5.964844 0.453125 -4.664062 C 0.453125 -2.457031 3.453125 -2.988281 3.453125 -1.851562 C 3.453125 -1.492188 3.148438 -1.253906 2.652344 -1.253906 C 2.054688 -1.253906 1.589844 -1.589844 1.351562 -2.101562 L 0.171875 -1.363281 C 0.59375 -0.550781 1.503906 0.0859375 2.640625 0.0859375 Z M 2.640625 0.0859375 "/></g></g></g><g fill="#f9fafb" fill-opacity="1"><g transform="translate(6.152213, 50.764656)"><g><path d="M 4.699219 0 L 6.601562 0 L 3.476562 -3.605469 L 6.277344 -6.496094 L 4.4375 -6.496094 L 2.316406 -4.199219 L 2.066406 -4.199219 L 2.066406 -6.496094 L 0.636719 -6.496094 L 0.636719 0 L 2.066406 0 L 2.066406 -2.964844 L 2.273438 -2.964844 Z M 4.699219 0 "/></g></g></g><g fill="#f9fafb" fill-opacity="1"><g transform="translate(12.908869, 50.764656)"><g><path d="M 0.691406 0 L 2.121094 0 L 2.121094 -6.496094 L 0.691406 -6.496094 Z M 0.691406 0 "/></g></g></g><g fill="#f9fafb" fill-opacity="1"><g transform="translate(16.093473, 50.764656)"><g><path d="M 2.066406 -1.265625 L 2.066406 -6.496094 L 0.636719 -6.496094 L 0.636719 0 L 4.222656 0 L 4.222656 -1.265625 Z M 2.066406 -1.265625 "/></g></g></g><g fill="#f9fafb" fill-opacity="1"><g transform="translate(20.717722, 50.764656)"><g><path d="M 2.066406 -1.265625 L 2.066406 -6.496094 L 0.636719 -6.496094 L 0.636719 0 L 4.222656 0 L 4.222656 -1.265625 Z M 2.066406 -1.265625 "/></g></g></g><g fill="#f9fafb" fill-opacity="1"><g transform="translate(25.341971, 50.764656)"><g/></g></g><g fill="#f9fafb" fill-opacity="1"><g transform="translate(28.320911, 50.764656)"><g><path d="M 2.640625 0.0859375 C 3.851562 0.0859375 4.882812 -0.628906 4.882812 -1.839844 C 4.882812 -4.242188 1.894531 -3.648438 1.894531 -4.773438 C 1.894531 -5.140625 2.175781 -5.316406 2.523438 -5.316406 C 2.890625 -5.316406 3.257812 -5.109375 3.582031 -4.75 L 4.535156 -5.660156 C 4.058594 -6.214844 3.332031 -6.582031 2.53125 -6.582031 C 1.503906 -6.582031 0.453125 -5.964844 0.453125 -4.664062 C 0.453125 -2.457031 3.453125 -2.988281 3.453125 -1.851562 C 3.453125 -1.492188 3.148438 -1.253906 2.652344 -1.253906 C 2.054688 -1.253906 1.589844 -1.589844 1.351562 -2.101562 L 0.171875 -1.363281 C 0.59375 -0.550781 1.503906 0.0859375 2.640625 0.0859375 Z M 2.640625 0.0859375 "/></g></g></g><g fill="#f9fafb" fill-opacity="1"><g transform="translate(33.832762, 50.764656)"><g><path d="M 7.542969 -6.496094 L 6.386719 -1.992188 L 5.140625 -6.496094 L 3.757812 -6.496094 L 2.523438 -1.96875 L 1.351562 -6.496094 L -0.152344 -6.496094 L 1.625 0 L 3.269531 0 L 4.449219 -4.566406 L 5.628906 0 L 7.273438 0 L 9.050781 -6.496094 Z M 7.542969 -6.496094 "/></g></g></g><g fill="#f9fafb" fill-opacity="1"><g transform="translate(43.111505, 50.764656)"><g><path d="M 4.609375 0 L 6.136719 0 L 3.800781 -6.496094 L 2.199219 -6.496094 L -0.140625 0 L 1.386719 0 L 1.785156 -1.222656 L 4.210938 -1.222656 Z M 2.164062 -2.414062 L 3 -4.988281 L 3.832031 -2.414062 Z M 2.164062 -2.414062 "/></g></g></g><g fill="#f9fafb" fill-opacity="1"><g transform="translate(49.489309, 50.764656)"><g><path d="M 3.398438 -6.496094 L 0.636719 -6.496094 L 0.636719 0 L 2.066406 0 L 2.066406 -2.628906 L 3.398438 -2.628906 C 4.492188 -2.628906 5.335938 -3.441406 5.335938 -4.535156 C 5.335938 -5.617188 4.492188 -6.496094 3.398438 -6.496094 Z M 3.171875 -3.808594 L 2.066406 -3.808594 L 2.066406 -5.238281 L 3.171875 -5.238281 C 3.625 -5.238281 3.972656 -4.945312 3.972656 -4.523438 C 3.972656 -4.089844 3.625 -3.808594 3.171875 -3.808594 Z M 3.171875 -3.808594 "/></g></g></g></svg>